<svg xmlns="http://www.w3.org/2000/svg" viewBox="0 0 512 512"><path d="M0 0h512v512H0z"/><path fill="#fff" d="M98 299.417a158 75 0 1 0 316 0a158 75 0 1 0-316 0M431.963 310.311v53.108c0 18.27-9.684 35.238-25.434 49.057-15.75 13.818-37.74 24.997-64.526 32.832-53.573 15.668-118.452 15.668-172.025 0-26.788-7.835-48.777-19.014-64.527-32.832-15.586-13.676-25.227-30.438-25.426-48.49h-.18v-53.58C40.076 330.146 18 355.583 18 381.006c0 26.53 24.032 53.084 67.143 73.155C128.253 474.23 188.925 487 256 487s127.747-12.77 170.857-32.84C469.967 434.09 494 407.535 494 381.004c0-25.463-22.147-50.94-62.037-70.693zm-334.117 30.8v22.308h.172c0 11.95 6.228 24.05 19.306 35.525 13.078 11.475 32.832 21.81 57.707 29.086 49.75 14.55 112.17 14.55 161.92 0 24.876-7.276 44.63-17.612 57.708-29.087 13.078-11.475 19.305-23.575 19.305-35.525V341.32c-9.224 9.965-21.516 18.697-35.81 25.936C346.288 383.396 303.35 393 256 393s-90.287-9.604-122.154-25.744c-14.393-7.29-26.756-16.093-36-26.145z"/></svg>