<svg xmlns="http://www.w3.org/2000/svg" viewBox="0 0 512 512"><path d="M0 0h512v512H0z"/><path fill="#fff" d="m98 267.417c0 41.42138 70.73901 75 158 75 87.26099 0 158-33.57859 158-75 0-41.42138-70.73901-75-158-75-87.26099 0-158 33.57859-158 75m333.963 42.894v53.108c0 18.27-9.684 35.238-25.434 49.057-15.75 13.818-37.74 24.997-64.526 32.832-53.573 15.668-118.452 15.668-172.025 0C143.19 437.473 121.201 426.294 105.451 412.476 89.865 398.8 80.224 382.038 80.025 363.986h-0.18v-53.58C40.076 330.146 18 355.583 18 381.006 18 407.536 42.032 434.09 85.143 454.161 128.253 474.23 188.925 487 256 487 323.075 487 383.747 474.23 426.857 454.16 469.967 434.09 494 407.535 494 381.004c0-25.463-22.147-50.94-62.037-70.693zm-334.117-1.2v54.308h0.172c0 11.95 6.228 24.05 19.306 35.525 13.078 11.475 32.832 21.81 57.707 29.086 49.75 14.55 112.17 14.55 161.92 0 24.876-7.276 44.63-17.612 57.708-29.087 13.078-11.475 19.305-23.575 19.305-35.525V309.32c-9.224 9.965-21.516 18.697-35.81 25.936C346.288 351.396 303.35 361 256 361c-47.35 0-90.287-9.604-122.154-25.744-14.393-7.29-26.756-16.093-36-26.145z"/></svg>